<svg id="svg" version="1.1" xmlns="http://www.w3.org/2000/svg" xmlns:xlink="http://www.w3.org/1999/xlink" width="400" height="356.53979238754323" viewBox="0, 0, 400,356.53979238754323"><g id="svgg"><path id="path0" d="M192.664 27.853 C 179.055 28.522,169.694 30.058,167.652 31.957 C 165.902 33.585,164.660 38.457,165.813 39.170 C 165.965 39.264,166.090 39.561,166.090 39.830 C 166.090 40.490,168.217 42.719,169.385 43.282 C 170.648 43.892,173.214 43.865,177.770 43.196 C 194.103 40.797,210.049 40.797,226.382 43.196 C 230.938 43.865,233.504 43.892,234.767 43.282 C 235.935 42.719,238.062 40.490,238.062 39.830 C 238.062 39.561,238.187 39.264,238.339 39.170 C 239.493 38.457,238.250 33.585,236.500 31.957 C 233.491 29.158,210.293 26.987,192.664 27.853 M181.869 49.569 C 174.474 50.586,164.555 52.758,157.924 54.812 C 156.401 55.284,154.982 55.704,154.769 55.746 C 154.556 55.788,129.627 98.699,99.372 151.104 L 44.363 246.385 45.852 252.258 C 48.201 261.523,53.344 275.972,55.420 279.140 C 58.423 283.721,66.262 282.534,67.787 277.266 C 68.405 275.135,68.051 273.282,66.185 268.870 C 64.210 264.198,61.928 257.645,60.334 252.064 L 59.179 248.023 71.601 226.503 C 78.433 214.667,101.834 174.131,123.603 136.423 L 163.183 67.864 165.813 67.161 C 171.828 65.553,179.057 64.163,186.144 63.252 C 194.040 62.237,197.162 56.781,192.889 51.464 C 190.884 48.970,188.814 48.614,181.869 49.569 M213.524 49.691 C 210.499 51.199,208.823 54.792,209.733 57.819 C 210.717 61.086,213.043 62.614,218.009 63.252 C 225.095 64.163,232.325 65.553,238.339 67.161 L 240.969 67.864 280.549 136.423 C 302.318 174.131,325.719 214.667,332.551 226.503 L 344.973 248.023 343.819 252.064 C 342.224 257.645,339.942 264.198,337.967 268.870 C 336.101 273.282,335.747 275.135,336.365 277.266 C 337.890 282.534,345.729 283.721,348.732 279.140 C 350.809 275.972,355.952 261.523,358.301 252.258 L 359.790 246.385 304.780 151.104 C 274.525 98.699,249.596 55.788,249.384 55.746 C 249.171 55.704,247.751 55.284,246.228 54.812 C 232.862 50.671,216.651 48.133,213.524 49.691 M190.865 100.515 C 180.856 101.204,178.547 102.726,178.547 108.635 C 178.547 111.839,184.593 232.829,184.867 235.100 C 185.536 240.656,188.828 242.487,195.469 240.998 C 199.940 239.995,204.212 239.995,208.684 240.998 C 215.324 242.487,218.616 240.656,219.285 235.100 C 219.559 232.829,225.606 111.839,225.606 108.635 C 225.606 104.109,223.428 101.644,218.900 101.045 C 212.879 100.247,198.664 99.978,190.865 100.515 M198.201 252.340 C 184.583 255.924,182.637 274.755,195.242 280.969 C 208.689 287.597,222.584 273.110,215.545 259.803 C 212.418 253.893,204.783 250.608,198.201 252.340 M33.813 265.443 C 30.131 267.608,29.323 270.607,31.147 275.343 C 37.712 292.392,48.158 310.582,59.836 325.302 C 63.385 329.775,66.430 330.777,70.101 328.679 C 71.128 328.092,71.968 327.470,71.970 327.296 C 71.971 327.122,72.145 326.914,72.355 326.833 C 72.916 326.618,73.847 323.620,73.724 322.424 C 73.542 320.650,72.689 319.141,69.790 315.471 C 59.028 301.845,50.978 287.901,44.916 272.388 C 42.397 265.943,41.219 264.730,37.266 264.515 C 35.702 264.430,35.396 264.512,33.813 265.443 M365.431 264.653 C 362.582 265.226,361.514 266.560,359.237 272.388 C 353.174 287.901,345.124 301.845,334.362 315.471 C 331.464 319.141,330.610 320.650,330.428 322.424 C 330.305 323.620,331.236 326.618,331.797 326.833 C 332.008 326.914,332.181 327.122,332.182 327.296 C 332.184 327.470,333.025 328.092,334.051 328.679 C 339.282 331.668,342.730 328.839,353.403 312.803 C 363.601 297.481,374.292 275.613,373.910 270.857 C 373.573 266.658,369.668 263.801,365.431 264.653 M74.187 293.207 C 73.654 293.342,73.062 293.467,72.872 293.485 C 72.682 293.503,72.526 293.629,72.526 293.765 C 72.526 293.901,72.409 293.940,72.266 293.851 C 72.123 293.763,71.905 293.871,71.782 294.092 C 71.658 294.313,71.482 294.471,71.390 294.444 C 71.048 294.343,69.266 296.800,69.017 297.716 C 68.432 299.867,68.512 301.595,69.268 303.114 C 70.820 306.232,79.381 316.382,86.255 323.253 L 91.863 328.858 202.076 328.858 L 312.290 328.858 317.898 323.253 C 324.771 316.382,333.333 306.232,334.884 303.114 C 335.640 301.595,335.720 299.867,335.135 297.716 C 334.880 296.779,333.182 294.445,332.863 294.593 C 332.770 294.636,332.571 294.451,332.420 294.181 C 332.269 293.911,332.029 293.763,331.886 293.851 C 331.743 293.940,331.626 293.901,331.626 293.765 C 331.626 293.629,331.471 293.505,331.280 293.489 C 331.090 293.473,330.491 293.346,329.950 293.207 C 327.043 292.461,324.386 293.957,321.246 298.105 C 317.896 302.531,313.341 307.834,309.515 311.765 L 306.079 315.294 202.076 315.294 L 98.073 315.294 94.637 311.765 C 90.811 307.834,86.257 302.531,82.907 298.105 C 79.772 293.964,77.106 292.467,74.187 293.207 " stroke="none" fill="#040404" fill-rule="evenodd"></path><path id="path1" d="M193.910 76.714 C 186.529 77.157,176.920 78.627,169.550 80.441 C 165.931 81.332,165.836 81.391,164.730 83.402 C 164.210 84.348,161.956 88.298,159.721 92.180 C 157.486 96.062,153.189 103.536,150.172 108.789 C 143.745 119.977,97.256 200.524,90.578 212.042 C 88.062 216.381,83.319 224.540,80.038 230.173 C 76.757 235.806,73.669 241.167,73.174 242.086 L 72.275 243.756 73.488 247.760 C 80.142 269.731,90.574 287.601,106.409 304.152 L 108.329 306.159 202.076 306.159 L 295.823 306.159 297.743 304.152 C 313.578 287.601,324.010 269.731,330.664 247.760 L 331.877 243.756 330.978 242.086 C 330.484 241.167,327.395 235.806,324.114 230.173 C 320.833 224.540,316.090 216.381,313.575 212.042 C 306.896 200.524,260.407 119.977,253.981 108.789 C 250.963 103.536,246.666 96.062,244.431 92.180 C 242.196 88.298,239.942 84.348,239.422 83.402 C 238.317 81.391,238.221 81.332,234.602 80.441 C 221.467 77.207,207.315 75.911,193.910 76.714 M212.642 100.493 C 223.398 101.215,225.606 102.602,225.606 108.635 C 225.606 111.839,219.559 232.829,219.285 235.100 C 218.616 240.656,215.324 242.487,208.684 240.998 C 204.212 239.995,199.940 239.995,195.469 240.998 C 188.828 242.487,185.536 240.656,184.867 235.100 C 184.593 232.829,178.547 111.839,178.547 108.635 C 178.547 104.057,180.730 101.632,185.399 101.023 C 191.353 100.247,205.021 99.981,212.642 100.493 M205.824 252.323 C 217.378 255.266,221.308 269.721,212.852 278.176 C 205.794 285.235,193.510 283.514,188.677 274.790 C 182.187 263.075,192.904 249.033,205.824 252.323 " stroke="none" fill="#d3fb04" fill-rule="evenodd"></path></g></svg>