<?xml version="1.0" standalone="no"?>
<!DOCTYPE svg PUBLIC "-//W3C//DTD SVG 20010904//EN"
 "http://www.w3.org/TR/2001/REC-SVG-20010904/DTD/svg10.dtd">
<svg version="1.0" xmlns="http://www.w3.org/2000/svg"
 width="300.000000pt" height="267.000000pt" viewBox="0 0 300.000000 267.000000"
 preserveAspectRatio="xMidYMid meet">
<metadata>
Created by potrace 1.10, written by Peter Selinger 2001-2011
</metadata>
<g transform="translate(0.000000,267.000000) scale(0.100000,-0.100000)"
fill="#000000" stroke="none">
<path d="M1330 2450 c-60 -9 -92 -36 -83 -70 9 -34 33 -40 114 -28 73 10 324
5 366 -7 14 -5 28 0 42 14 26 26 26 33 4 60 -13 16 -36 24 -83 31 -77 11 -282
11 -360 0z"/>
<path d="M1300 2285 c-36 -7 -83 -18 -105 -24 l-40 -12 -411 -712 -411 -712
18 -65 c33 -115 69 -190 96 -196 31 -8 66 22 60 51 -3 11 -19 59 -36 106 l-31
86 251 434 c138 239 314 543 391 677 97 167 148 246 163 252 13 5 60 14 105
21 67 10 85 17 97 36 14 21 14 26 -1 48 -19 29 -44 31 -146 10z"/>
<path d="M1593 2289 c-7 -7 -13 -26 -13 -41 0 -35 15 -42 129 -62 47 -9 90
-21 97 -28 7 -7 186 -314 398 -681 l387 -669 -35 -101 c-32 -93 -34 -104 -20
-124 18 -28 48 -29 72 -5 19 19 81 193 84 234 0 13 -44 100 -104 203 -58 99
-241 416 -408 705 -167 289 -304 527 -306 529 -6 7 -159 41 -214 47 -38 4 -59
2 -67 -7z"/>
<path d="M1362 1904 c-28 -19 -28 -13 -1 -564 15 -310 25 -441 34 -456 13 -19
22 -21 119 -20 79 1 109 5 120 16 11 12 19 108 35 455 12 242 22 464 24 494 3
83 -13 91 -177 91 -103 0 -136 -3 -154 -16z"/>
<path d="M1485 782 c-100 -33 -116 -170 -25 -217 102 -53 207 52 158 159 -19
44 -87 73 -133 58z"/>
<path d="M251 674 c-19 -14 -22 -23 -18 -50 14 -83 184 -372 242 -410 23 -15
27 -15 50 0 14 9 25 25 25 35 0 10 -25 51 -55 92 -31 41 -85 133 -120 205 -54
109 -78 144 -99 144 -1 0 -12 -7 -25 -16z"/>
<path d="M2733 683 c-7 -2 -39 -59 -71 -126 -33 -67 -87 -160 -120 -207 -34
-47 -62 -91 -62 -98 0 -14 35 -52 49 -52 51 0 250 315 268 425 4 26 1 36 -18
49 -25 17 -27 17 -46 9z"/>
<path d="M532 458 c-30 -30 6 -94 116 -210 l36 -38 832 0 831 0 44 48 c113
122 138 169 107 200 -28 28 -55 12 -124 -68 l-69 -80 -787 0 -787 0 -72 80
c-73 80 -100 95 -127 68z"/>
</g>
</svg>
