<svg xmlns="http://www.w3.org/2000/svg" width="1445" height="1288" viewBox="0 0 1445 1288" version="1.1"><path d="M 702.593 277.091 C 675.457 278.642, 645.933 282.983, 616.736 289.715 C 603.228 292.829, 600.533 293.765, 598.814 295.940 C 597.701 297.348, 589.054 312, 579.598 328.500 C 550.042 380.075, 521.491 429.617, 429.478 589 C 341.752 740.956, 316.905 783.925, 283.468 841.500 C 258.285 884.863, 260.879 878.996, 263.190 887.372 C 264.272 891.292, 267.542 901.700, 270.457 910.500 C 293.772 980.889, 327.666 1037.562, 380.351 1094.250 C 391.272 1106, 391.272 1106, 730 1106 C 1068.728 1106, 1068.728 1106, 1079.649 1094.250 C 1132.334 1037.562, 1166.228 980.889, 1189.543 910.500 C 1192.458 901.700, 1195.728 891.292, 1196.810 887.372 C 1199.121 878.996, 1201.715 884.863, 1176.532 841.500 C 1115.204 735.898, 931.086 416.942, 880.402 328.500 C 870.946 312, 862.299 297.348, 861.186 295.940 C 859.467 293.765, 856.783 292.833, 843.331 289.739 C 794.354 278.474, 749.279 274.423, 702.593 277.091 M 689.500 363.110 C 662.853 364.945, 657.105 366.554, 650.768 373.958 C 646.507 378.936, 645 383.765, 645 392.442 C 645 404.019, 666.843 841.094, 667.831 849.297 C 669.007 859.057, 672.510 865.184, 679.321 869.395 C 686.038 873.548, 691.838 873.809, 706.131 870.604 C 722.285 866.981, 737.715 866.981, 753.869 870.604 C 768.162 873.809, 773.962 873.548, 780.679 869.395 C 787.490 865.184, 790.993 859.057, 792.169 849.297 C 793.157 841.094, 815 404.019, 815 392.442 C 815 383.765, 813.493 378.936, 809.232 373.958 C 802.728 366.360, 797.656 365.010, 768.170 363.030 C 750.587 361.849, 707.184 361.893, 689.500 363.110 M 716 911.579 C 697.484 916.451, 682.004 931.518, 676.595 949.932 C 674.476 957.145, 674.472 973.827, 676.586 981.068 C 682.504 1001.333, 700.825 1017.216, 721.750 1020.222 C 749.263 1024.174, 775.734 1007.367, 783.414 981.068 C 785.528 973.827, 785.524 957.145, 783.405 949.932 C 777.931 931.295, 762.388 916.318, 743.540 911.518 C 736.143 909.634, 723.283 909.662, 716 911.579" stroke="none" fill="#d3fb04" fill-rule="evenodd"/><path d="M 693 101.080 C 658.032 102.963, 621.066 107.841, 613.276 111.601 C 597.675 119.130, 593.971 139.011, 605.991 150.704 C 613.632 158.136, 619.226 158.887, 642.500 155.608 C 674.744 151.065, 694.909 149.705, 730 149.705 C 765.091 149.705, 785.256 151.065, 817.500 155.608 C 840.774 158.887, 846.368 158.136, 854.009 150.704 C 858.441 146.393, 860.953 140.547, 860.972 134.500 C 860.996 127.349, 859.512 122.958, 855.478 118.246 C 849.706 111.502, 844 109.424, 823.500 106.600 C 780.118 100.624, 736.069 98.761, 693 101.080 M 652 180.441 C 628.833 183.973, 603.706 189.331, 580.889 195.602 C 569.675 198.685, 559.871 201.309, 559.102 201.434 C 558.334 201.558, 468.360 356.412, 359.161 545.553 C 160.616 889.445, 160.616 889.445, 164.904 906.472 C 175.134 947.090, 193.746 998.579, 201.939 1008.922 C 213.047 1022.948, 235.607 1020.095, 243.038 1003.725 C 246.842 995.345, 245.957 990.264, 236.585 966.677 C 228.816 947.124, 219.798 920.455, 215.221 903.500 C 213.332 896.500, 213.332 896.500, 234.988 859 C 246.898 838.375, 331.461 691.900, 422.904 533.500 C 514.348 375.100, 589.466 245.189, 589.833 244.809 C 592.248 242.305, 643.675 231.524, 667.500 228.527 C 683.368 226.531, 686.395 225.732, 691.474 222.201 C 698.133 217.572, 701.180 212.262, 701.723 204.339 C 702.465 193.519, 697.701 185.019, 688.320 180.423 C 682.619 177.629, 670.401 177.635, 652 180.441 M 774.500 179.231 C 763.355 183.220, 757.301 192.707, 758.262 204.678 C 758.874 212.299, 762.028 217.684, 768.526 222.201 C 773.605 225.732, 776.632 226.531, 792.500 228.527 C 816.325 231.524, 867.752 242.305, 870.167 244.809 C 870.534 245.189, 945.652 375.100, 1037.096 533.500 C 1128.539 691.900, 1213.102 838.375, 1225.012 859 C 1246.668 896.500, 1246.668 896.500, 1244.779 903.500 C 1240.202 920.455, 1231.184 947.124, 1223.415 966.677 C 1214.043 990.264, 1213.158 995.345, 1216.962 1003.725 C 1224.393 1020.095, 1246.953 1022.948, 1258.061 1008.922 C 1266.254 998.579, 1284.866 947.090, 1295.096 906.472 C 1299.384 889.445, 1299.384 889.445, 1100.839 545.553 C 991.640 356.412, 901.666 201.558, 900.898 201.434 C 900.129 201.309, 890.275 198.669, 879 195.567 C 855.925 189.220, 826.707 183.115, 804.758 180.055 C 788.712 177.818, 779.175 177.559, 774.500 179.231 M 689.500 363.110 C 662.853 364.945, 657.105 366.554, 650.768 373.958 C 646.507 378.936, 645 383.765, 645 392.442 C 645 404.019, 666.843 841.094, 667.831 849.297 C 669.007 859.057, 672.510 865.184, 679.321 869.395 C 686.038 873.548, 691.838 873.809, 706.131 870.604 C 722.285 866.981, 737.715 866.981, 753.869 870.604 C 768.162 873.809, 773.962 873.548, 780.679 869.395 C 787.490 865.184, 790.993 859.057, 792.169 849.297 C 793.157 841.094, 815 404.019, 815 392.442 C 815 383.765, 813.493 378.936, 809.232 373.958 C 802.728 366.360, 797.656 365.010, 768.170 363.030 C 750.587 361.849, 707.184 361.893, 689.500 363.110 M 716 911.579 C 697.484 916.451, 682.004 931.518, 676.595 949.932 C 674.476 957.145, 674.472 973.827, 676.586 981.068 C 682.504 1001.333, 700.825 1017.216, 721.750 1020.222 C 749.263 1024.174, 775.734 1007.367, 783.414 981.068 C 785.528 973.827, 785.524 957.145, 783.405 949.932 C 777.931 931.295, 762.388 916.318, 743.540 911.518 C 736.143 909.634, 723.283 909.662, 716 911.579 M 128.500 956.880 C 121.164 958.800, 114.252 964.760, 111.375 971.645 C 108.368 978.842, 109.486 985.865, 116.420 1003.330 C 135.143 1050.492, 161.402 1098.780, 191.829 1142 C 202.438 1157.070, 220.512 1180.360, 224.137 1183.633 C 233.371 1191.969, 248.307 1191.985, 257.386 1183.668 C 264.361 1177.279, 267.065 1165.186, 263.451 1156.537 C 262.599 1154.499, 256.133 1145.426, 249.081 1136.376 C 213.835 1091.141, 183.758 1039.004, 163.486 988 C 156.623 970.734, 154.968 967.377, 151.527 963.749 C 146.087 958.014, 135.843 954.958, 128.500 956.880 M 1319.994 956.879 C 1312.641 959.277, 1307.318 963.664, 1304.071 970 C 1303.085 971.925, 1299.684 980.025, 1296.514 988 C 1276.242 1039.004, 1246.165 1091.141, 1210.919 1136.376 C 1203.867 1145.426, 1197.401 1154.499, 1196.549 1156.537 C 1192.935 1165.186, 1195.639 1177.279, 1202.614 1183.668 C 1211.693 1191.985, 1226.629 1191.969, 1235.863 1183.633 C 1239.488 1180.360, 1257.562 1157.070, 1268.171 1142 C 1298.598 1098.780, 1324.857 1050.492, 1343.580 1003.330 C 1350.514 985.865, 1351.632 978.842, 1348.625 971.645 C 1346.684 967, 1341.350 961.219, 1336.919 958.959 C 1332.616 956.763, 1323.705 955.669, 1319.994 956.879 M 262.557 1062.047 C 257.097 1064.771, 254.424 1067.509, 251.505 1073.366 C 248.560 1079.275, 248.208 1086.504, 250.543 1093.121 C 253.961 1102.808, 282.719 1137.608, 311.390 1166.750 C 332.296 1188, 332.296 1188, 730 1188 C 1127.704 1188, 1127.704 1188, 1148.610 1166.750 C 1177.281 1137.608, 1206.039 1102.808, 1209.457 1093.121 C 1215.354 1076.408, 1204.218 1060, 1186.978 1060 C 1176.255 1060, 1171.525 1063.403, 1158.479 1080.500 C 1147.667 1094.669, 1131.641 1113.259, 1118.674 1126.675 C 1106.760 1139, 1106.760 1139, 730 1139 C 353.240 1139, 353.240 1139, 341.326 1126.675 C 328.359 1113.259, 312.333 1094.669, 301.521 1080.500 C 292.016 1068.042, 289.216 1065.188, 283.783 1062.411 C 277.714 1059.309, 268.367 1059.148, 262.557 1062.047" stroke="none" fill="#040404" fill-rule="evenodd"/></svg>
